<svg xmlns="http://www.w3.org/2000/svg" xmlns:xlink="http://www.w3.org/1999/xlink" width="15.652" height="15.61" viewBox="0 0 15.652 15.61"><defs><style>.a{fill:none;}.b{clip-path:url(#a);}.c{fill:#189211;}.d{fill:#fff;}</style><clipPath id="a"><rect class="a" width="15.652" height="15.61" transform="translate(0 0)"/></clipPath></defs><g transform="translate(0 0)"><g class="b" transform="translate(0 0)"><path class="c" d="M7.684.007A7.732,7.732,0,0,1,15.645,7.9a7.715,7.715,0,0,1-11.3,6.432.308.308,0,0,0-.213-.017c-1.382.429-2.742.875-4.128,1.3,2.253-6.67,1.093-2.027.294-7.468A7.7,7.7,0,0,1,7.684.007" transform="translate(0 0)"/><path class="d" d="M12.981,11.4c.334-.088.485.127.6.426.156.407.326.808.507,1.2a.522.522,0,0,1-.066.575c-.124.164-.259.318-.391.475a.279.279,0,0,0-.041.394,5.114,5.114,0,0,0,2.639,2.234.283.283,0,0,0,.36-.118q.263-.316.519-.637c.176-.222.245-.25.5-.132.489.224.974.459,1.46.689a.243.243,0,0,1,.164.273,6.37,6.37,0,0,1-.131.7,1.119,1.119,0,0,1-.5.567,1.95,1.95,0,0,1-1.237.39,3.618,3.618,0,0,1-.894-.2,6.858,6.858,0,0,1-2.14-1.021,8.151,8.151,0,0,1-1.548-1.545,7.2,7.2,0,0,1-.926-1.428,2.3,2.3,0,0,1-.029-2.051,2.064,2.064,0,0,1,.525-.657.768.768,0,0,1,.626-.134" transform="translate(-7.386 -7.247)"/></g></g></svg>